<?xml version="1.0" standalone="no"?>
<!DOCTYPE svg PUBLIC "-//W3C//DTD SVG 20010904//EN"
 "http://www.w3.org/TR/2001/REC-SVG-20010904/DTD/svg10.dtd">
<svg version="1.0" xmlns="http://www.w3.org/2000/svg"
 width="368.000000pt" height="368.000000pt" viewBox="0 0 368.000000 368.000000"
 preserveAspectRatio="xMidYMid meet">
<metadata>
Created by potrace 1.11, written by Peter Selinger 2001-2013
</metadata>
<g transform="translate(0.000000,368.000000) scale(0.100000,-0.100000)"
fill="#000000" stroke="none">
<path d="M1570 3025 c-69 -13 -177 -53 -248 -93 -97 -55 -232 -210 -271 -313
-7 -19 -17 -43 -22 -54 -36 -86 -69 -286 -69 -425 1 -149 36 -399 69 -485 5
-11 14 -38 20 -60 44 -146 152 -327 245 -412 91 -84 192 -121 341 -126 l70 -2
0 -40 0 -40 -63 -13 c-79 -15 -198 -64 -251 -103 -93 -67 -137 -168 -118 -271
l10 -54 -76 -76 c-81 -81 -127 -162 -127 -223 l0 -35 120 0 c114 0 120 1 131
22 18 35 71 88 88 88 9 0 32 -25 51 -55 19 -30 38 -55 43 -55 20 0 0 40 -79
157 -103 152 -127 201 -130 268 -6 135 95 220 332 280 75 18 74 18 74 3 0 -7
5 -30 10 -50 8 -29 19 -41 55 -58 113 -55 245 -1 245 101 l0 39 58 0 c58 0
165 -19 215 -39 18 -7 27 -18 27 -32 0 -12 13 -37 30 -56 34 -39 36 -52 14
-95 -18 -35 -19 -35 -154 2 -77 21 -106 23 -300 24 -164 0 -236 -5 -305 -18
-49 -10 -108 -20 -131 -23 -22 -3 -51 -14 -65 -24 l-24 -19 25 0 c14 0 59 7
100 16 202 43 525 45 685 3 108 -27 129 -42 121 -82 -6 -34 -77 -180 -152
-314 l-46 -83 90 0 90 0 47 75 c25 41 51 77 56 81 22 13 127 -86 136 -128 l6
-28 130 0 130 0 -5 49 c-11 108 -142 289 -233 323 l-36 12 7 66 c5 53 2 76
-15 122 -49 129 -195 203 -445 224 l-72 7 -13 71 -12 71 33 25 c63 47 157 150
191 208 97 167 108 252 86 723 -16 368 -57 547 -163 709 -121 186 -314 261
-556 215z m178 -49 c37 -19 110 -99 155 -168 94 -148 138 -283 193 -598 34
-188 38 -514 10 -645 -31 -140 -90 -291 -140 -354 -17 -22 -124 -69 -185 -82
-31 -7 -87 -20 -126 -30 -73 -20 -135 -24 -150 -11 -6 4 -28 14 -50 21 -71 24
-189 129 -246 221 -64 101 -128 246 -155 346 -46 178 -58 268 -58 454 0 168 3
195 27 290 15 58 47 148 72 200 60 122 159 224 280 287 139 71 308 103 373 69z"/>
<path d="M1168 2468 c-21 -5 -57 -27 -80 -47 -40 -36 -42 -41 -46 -103 -4 -61
-2 -70 26 -110 31 -45 51 -59 113 -77 28 -9 45 -8 80 4 94 34 129 78 129 165
0 66 -23 108 -78 145 -46 30 -92 38 -144 23z"/>
<path d="M1693 2458 c-47 -33 -73 -86 -73 -147 0 -125 89 -204 204 -179 95 20
156 87 156 172 0 62 -23 104 -81 146 -37 26 -50 30 -108 30 -53 0 -73 -5 -98
-22z"/>
<path d="M1364 2121 c-12 -5 -25 -14 -28 -20 -4 -6 -24 -18 -44 -26 -140 -61
-212 -98 -212 -112 0 -16 17 -26 25 -13 10 16 40 12 63 -10 27 -26 28 -37 1
-45 -14 -5 -28 0 -45 16 -20 18 -24 20 -24 6 0 -9 14 -26 30 -39 17 -12 30
-30 30 -40 0 -10 6 -21 14 -24 12 -5 11 -17 -6 -77 -25 -86 -37 -157 -31 -174
3 -6 17 -13 31 -15 21 -2 28 -10 32 -33 l5 -30 280 -3 c286 -3 474 9 476 32 0
6 0 74 -1 151 -1 159 -11 211 -41 220 -11 4 -163 4 -337 0 -174 -4 -315 -5
-312 -2 3 3 50 22 105 42 54 19 107 43 117 52 26 23 24 85 -5 118 -24 29 -86
42 -123 26z m87 -42 c20 -14 29 -29 29 -47 0 -25 -7 -30 -90 -60 -50 -18 -95
-30 -100 -27 -6 3 -10 17 -10 30 0 13 -6 25 -12 28 -10 3 -10 8 -2 17 13 13
134 79 147 80 5 0 22 -9 38 -21z m-193 -129 c-4 -36 -30 -36 -56 0 l-23 30 23
9 c32 12 59 -8 56 -39z m642 -115 c0 -8 -2 -15 -4 -15 -2 0 -6 7 -10 15 -3 8
-1 15 4 15 6 0 10 -7 10 -15z m-68 -36 c-1 -13 -14 -63 -29 -111 l-27 -88 -74
0 -74 0 6 28 c14 58 50 168 58 179 8 10 102 22 133 17 6 0 9 -12 7 -25z m-319
15 c6 -6 0 -22 -33 -99 -10 -23 -23 -60 -29 -83 -9 -33 -16 -42 -34 -42 -12 0
-39 -3 -59 -6 -36 -6 -38 -5 -38 21 0 29 15 85 31 117 11 22 12 38 1 38 -9 0
-50 -105 -54 -140 -3 -24 -6 -25 -63 -25 l-60 0 3 30 c2 17 11 48 21 70 10 22
24 57 32 78 l13 38 73 -3 c40 -1 75 1 79 5 9 9 108 9 117 1z m396 -176 c1 -57
-2 -69 -18 -78 -26 -13 -52 -13 -28 1 12 7 17 23 17 53 0 24 3 65 7 92 6 42 8
45 14 24 4 -14 7 -55 8 -92z m-61 15 c-2 -27 -7 -48 -13 -48 -5 0 -11 21 -13
48 -3 38 0 47 13 47 13 0 16 -9 13 -47z m-103 -103 c4 -6 -14 -10 -47 -11 -29
0 -147 -3 -263 -5 -144 -4 -207 -2 -200 5 10 10 73 13 392 19 66 1 114 -2 118
-8z"/>
<path d="M1435 2050 c3 -5 10 -10 16 -10 5 0 9 5 9 10 0 6 -7 10 -16 10 -8 0
-12 -4 -9 -10z"/>
<path d="M1810 645 c-14 -16 -5 -35 16 -35 15 0 20 35 5 44 -5 3 -14 -1 -21
-9z"/>
<path d="M2006 653 c-3 -4 -6 -15 -6 -25 0 -24 33 -21 38 3 3 17 -21 33 -32
22z"/>
<path d="M1651 640 c-17 -10 -7 -40 14 -40 8 0 15 9 15 19 0 24 -12 32 -29 21z"/>
<path d="M1487 613 c-14 -13 -6 -33 13 -33 13 0 20 7 20 20 0 19 -20 27 -33
13z"/>
<path d="M2165 600 c-8 -14 3 -30 21 -30 8 0 14 9 14 20 0 21 -24 28 -35 10z"/>
<path d="M1360 545 c0 -8 5 -15 10 -15 6 0 10 7 10 15 0 8 -4 15 -10 15 -5 0
-10 -7 -10 -15z"/>
</g>
</svg>
